<svg width="145" height="32" viewBox="0 0 145 32" fill="none" xmlns="http://www.w3.org/2000/svg">
<path d="M131.884 19.133C131.749 17.7247 131.192 15.6156 130.057 14.2894C129.259 13.3832 127.809 12.0251 125.449 10.7171L121.938 8.77465C121.028 8.27477 120.087 7.75662 119.708 7.35032C119.443 7.07184 119.334 6.67924 119.217 5.98533C119.256 5.75251 119.434 5.27773 119.523 5.15219C119.715 4.95132 120.487 4.61577 120.788 4.5998C121.034 4.60436 121.817 4.93306 122.434 5.41925C123.249 6.06066 124.691 7.84336 125.102 9.17639C125.148 9.32476 125.218 9.46628 125.31 9.59182C125.83 10.3086 126.638 10.6167 127.364 10.3816C128.667 9.95704 128.663 8.33183 128.663 7.72238C128.663 7.65391 128.658 7.58314 128.647 7.51694L127.837 2.14601C127.832 2.1209 127.83 2.09808 127.823 2.07297C127.7 1.46809 127.284 0.74907 126.49 0.536789C126.175 0.452333 125.358 0.351899 124.588 1.22157L124.531 1.28548C124.461 1.36765 124.326 1.5183 124.207 1.63471C124.057 1.55482 123.879 1.43613 123.794 1.38135C123.669 1.29689 123.559 1.22385 123.433 1.16222C122.409 0.644068 121.292 0.589286 120.439 0.605264C118.624 0.634937 117.038 1.17135 115.702 2.1871C115.221 1.23983 114.33 0.571031 113.338 0.518531C112.721 0.484292 112.199 0.648637 111.769 0.908852C111.482 0.790157 111.117 0.710268 110.646 0.710268C110.642 0.710268 110.64 0.710268 110.635 0.710268L107.711 0.719393C106.168 0.723958 105.737 1.53656 105.616 2.02047C105.52 2.40623 105.442 3.37861 106.798 4.10448C106.935 4.17752 107.024 4.23915 107.081 4.2848L107.09 7.44847L104.894 3.03166C103.974 0.956784 102.792 0.723962 102.249 0.737658L98.5966 0.74679C98.3432 0.74679 98.0944 0.817545 97.8776 0.947652C97.7475 1.02526 97.6333 1.11428 97.5283 1.20787C97.017 0.666897 96.2934 0.397553 95.6383 0.374727C95.6201 0.374727 95.6018 0.374727 95.5858 0.374727C95.5858 0.374727 87.9369 0.39755 87.4028 0.399832C86.6221 0.40668 85.9921 0.655484 85.5972 1.08689C85.2959 0.680593 84.8668 0.422662 84.3738 0.36788C83.6776 0.290272 83.1001 0.630376 82.7052 0.979612C82.4267 0.819831 82.098 0.657765 81.7944 0.571026C81.7328 0.552766 81.6712 0.534507 81.6073 0.516246C81.2169 0.397552 80.6714 0.242338 80.0483 0.240055C78.6833 0.242338 77.2315 0.755919 76.3094 1.52972C75.9989 0.876896 75.2776 0.502549 74.2802 0.513962L71.3584 0.523094C69.6305 0.525377 69.2904 1.60961 69.2265 1.94286C69.1032 2.58656 69.368 3.43111 70.4545 3.9173C70.4614 3.94469 70.4682 3.97437 70.4682 3.98578L70.4705 4.71621L68.9047 2.45873C67.9551 0.895159 66.67 0.602985 66.4212 0.559616C66.3413 0.545921 66.2546 0.534509 66.177 0.539074L62.4837 0.550484C62.381 0.550484 62.2783 0.561895 62.1801 0.584721C61.8903 0.648634 61.5798 0.781029 61.3105 0.981897C60.7216 0.456901 59.9569 0.267441 59.4593 0.24918C59.441 0.24918 59.4273 0.24918 59.4068 0.24918C59.4068 0.24918 48.3705 0.281142 47.7884 0.283425C46.8229 0.28799 45.677 0.922544 45.4328 1.97482C45.2981 2.55916 45.4442 3.32155 46.1974 3.86024C46.1952 3.87165 46.1906 3.88307 46.186 3.89676C45.9121 4.79382 45.4191 6.40532 44.9557 7.90955L43.9012 4.08621C44.7366 3.30785 44.7914 2.54775 44.675 2.0296C44.4627 1.07776 43.5679 0.550486 42.801 0.374727C42.696 0.349619 42.5887 0.335922 42.4814 0.338205L37.9824 0.3519C37.8797 0.3519 37.777 0.363311 37.6765 0.386137C36.9895 0.541353 36.4508 0.933962 36.1609 1.44526C35.9943 1.10516 35.8048 0.88831 35.7432 0.824397C35.4784 0.543639 35.1132 0.383857 34.7274 0.381575L29.0347 0.34049C28.9936 0.34049 28.9525 0.34277 28.9114 0.345052C28.0463 0.41353 27.3729 0.806133 26.9073 1.0983C26.5969 0.92711 26.1632 0.721681 25.5628 0.532226C24.3394 0.146469 23.6523 -0.00875134 22.5726 0.000379016C20.621 0.0209223 19.0164 0.664616 17.5281 2.02276C15.9851 3.43111 15.2044 5.21153 15.2113 7.31836C15.2159 9.044 16.2476 11.4818 17.5258 12.7646C18.1809 13.406 19.0483 14.0337 20.112 14.6409L23.2939 16.4259C24.9511 17.3549 26.1997 18.1766 26.9575 18.7062C27.5715 19.133 28.1308 20.3702 28.1581 21.0847C28.286 24.2871 26.6402 25.3326 25.7591 25.8941C24.5813 26.645 23.5861 26.8048 23.0474 26.7021C19.6692 26.0744 19.046 23.6024 18.9799 23.2805C18.9958 23.1573 19.005 23.0363 19.0118 22.9176C19.0597 22.2465 19.1008 22.2351 19.3679 22.162C21.2533 21.653 22.0522 19.9708 22.2257 19.0577C22.2348 19.0098 22.2417 18.9619 22.2462 18.9139C22.3878 17.2568 21.8057 16.2456 21.2921 15.6886C20.1988 14.4994 18.6489 14.4811 18.4549 14.4697C13.9057 14.5359 12.5795 18.115 12.5156 19.9799C12.3147 24.1593 14.0974 26.6907 15.6267 28.0808C17.204 29.512 18.8064 30.0256 19.0712 30.1032C20.4384 30.53 21.7646 30.7446 23.0155 30.7446C23.0406 30.7446 23.068 30.7446 23.0931 30.7446C25.4373 30.7309 27.414 30.1055 29.498 28.7131C30.9703 27.7293 33.1661 25.7274 33.8441 22.2785C33.8852 22.4428 33.9148 22.5752 33.9354 22.6688C34.2002 23.9333 34.7891 24.6272 35.6838 24.7345C36.5649 24.8395 37.373 24.2712 37.8957 23.1755C37.9276 23.1093 37.9527 23.0431 37.9733 22.9746C38.5211 21.1394 39.6852 17.2773 40.5275 14.5633C41.4634 17.5969 42.2645 20.2995 42.3376 20.7605C42.5339 22.0639 43.3693 22.3538 43.7186 22.4154C44.4695 22.5524 45.1931 22.1392 45.6542 21.3129C45.6998 21.2307 45.7364 21.144 45.766 21.055C45.9007 20.6373 48.0486 13.9219 49.5574 9.13074L49.5802 16.4556C49.5802 16.4898 49.5825 16.524 49.5848 16.5583C49.6076 16.8505 49.425 17.0673 49.3725 17.1244C49.3703 17.1267 49.3702 17.1266 49.3702 17.1266C49.368 17.1312 49.3634 17.1335 49.3611 17.1358C49.3588 17.1381 49.3566 17.1403 49.3543 17.1426C48.9411 17.517 47.6834 18.6537 48.2746 19.8977C48.4321 20.2287 48.9388 20.9751 50.2536 20.7742C50.8494 20.6806 53.3716 20.2515 55.8072 19.7585C58.7426 19.165 60.2719 18.8295 61.0206 18.2542C61.3424 18.5053 61.7647 18.6674 62.2555 18.7085C62.2943 18.7108 62.3354 18.7131 62.3742 18.7131C62.4244 18.7131 62.4769 18.7108 62.5271 18.7039L66.5262 18.2679C66.5924 18.2611 66.6563 18.2497 66.7179 18.2337C67.6675 17.994 68.2632 17.3823 68.3135 16.5948C68.35 16.0287 68.124 15.2458 66.8435 14.7459C66.5992 14.65 66.4897 14.5245 66.4417 14.4423L66.428 9.75617L71.7876 17.3526C71.8218 17.4006 71.8583 17.4462 71.8994 17.4919C72.8535 18.5373 73.6912 18.5076 74.2254 18.2999C74.7549 18.0945 75.0699 17.6768 75.232 17.2202C75.4945 18.01 76.0606 18.5419 76.7613 18.6286C77.2315 18.6857 77.8661 18.5761 78.439 17.8365C78.4619 17.8479 78.487 17.8594 78.5166 17.8708C78.8042 18.0077 80.2286 18.6583 81.2512 18.6583C81.306 18.6583 81.3607 18.656 81.4132 18.6514C82.8855 18.535 83.9195 18.2794 85.0905 17.3001C85.1088 17.3755 85.1293 17.4508 85.159 17.5284C85.2936 17.8776 85.7502 18.6834 87.1562 18.6377C89.6077 18.5555 91.9771 18.8614 93.7027 19.0851C94.6591 19.2084 95.4717 19.3134 96.1359 19.3134C96.4601 19.3134 96.7431 19.2837 96.9965 19.2243C97.2909 19.9114 98.0465 20.3497 99.1809 20.4706L101.781 20.9523C101.815 20.9591 101.849 20.9637 101.884 20.9683C103.408 21.1372 103.922 20.4022 104.088 19.9502C104.219 19.601 104.394 18.7016 103.23 17.9027C103.141 17.8411 103.093 17.7909 103.07 17.7612L103.057 12.8605L108.067 22.4702C108.124 22.5798 108.195 22.6802 108.277 22.7692C108.925 23.4768 109.519 23.6914 109.998 23.6914C110.226 23.6914 110.43 23.6434 110.601 23.575C110.653 23.5544 110.697 23.527 110.745 23.5019C111.808 27.5718 115.038 29.6033 116.967 30.1602C118.336 30.5848 119.674 30.8016 120.943 30.8016C120.955 30.8016 120.968 30.8016 120.98 30.8016C123.201 30.7948 125.353 30.1146 127.382 28.7747C131.598 25.9945 132.157 21.9977 131.884 19.133ZM27.5578 10.4181L24.07 8.48705C23.1501 7.98259 22.2006 7.46217 21.8171 7.0513C21.4861 6.70207 21.3286 6.30489 21.3264 5.80044C21.3241 5.01523 21.4268 4.85088 21.6939 4.60664C21.9518 4.37154 21.9678 4.35784 22.6366 4.3236C22.6891 4.32132 22.737 4.31904 22.7849 4.31904C23.1638 4.31904 23.4377 4.44459 24.538 5.31882C25.2364 5.87349 26.3914 7.69271 26.8114 8.73813C26.8753 8.89335 26.9644 9.03715 27.0785 9.1627C27.357 9.46856 28.1102 10.1625 29.0917 10.0506C29.5437 9.99812 29.95 9.77899 30.249 9.43204C30.596 10.6395 30.9498 11.8813 31.2967 13.1002C30.4499 12.3013 29.2355 11.3494 27.5578 10.4181ZM61.8766 11.4772C61.8446 11.443 61.8149 11.411 61.7784 11.3791C61.379 11.0207 60.8448 10.886 60.3084 11.007L60.2993 7.94607C60.943 8.36379 61.4771 8.3889 61.8674 8.29759L61.8766 11.4772ZM55.7044 15.6567C55.6839 14.0588 55.6725 12.3401 55.6862 11.9566C55.6885 11.9475 55.6907 11.9383 55.6885 11.9383C55.6885 11.9383 55.6839 11.9269 55.7957 11.9223C55.9647 11.9087 56.056 12.0844 56.0788 12.1415C56.2271 13.81 56.9553 14.4172 57.583 14.6249C56.9051 15.2344 56.1473 15.5654 55.7044 15.6567ZM55.9989 7.52836C55.9646 7.56032 55.9007 7.60825 55.7935 7.64249C55.782 6.82076 55.7569 5.22295 55.7524 4.55415L56.7795 4.51534C57.1196 4.60208 57.4506 4.77556 57.7588 4.99697C56.6882 5.33023 56.113 6.4487 55.9989 7.52836ZM86.5422 10.5733C86.3824 10.2834 86.1953 10.0004 85.9807 9.73562L85.8666 9.59639C85.3644 8.98465 84.6819 8.15379 83.358 7.36173L81.7944 6.22501C81.7579 6.19761 81.7168 6.1725 81.678 6.14739C81.0572 5.78446 80.6417 5.4786 80.3952 5.19784C80.3359 5.13164 80.2719 5.06316 80.208 4.99469C80.119 4.9011 79.9935 4.76643 79.9318 4.68197C79.9387 4.5085 79.9706 4.39208 79.9912 4.33274C80.062 4.2848 80.1784 4.23687 80.2377 4.23687C80.2423 4.23687 80.2446 4.23687 80.2468 4.23687C80.5596 4.23687 80.6166 4.27795 80.8563 4.44458L80.8905 4.46969C82.3263 5.4649 83.2119 6.64272 83.6365 7.2088C83.7187 7.31837 83.7871 7.40739 83.8396 7.47358C84.6728 8.49618 85.5265 8.24737 85.8552 8.09444C86.0355 8.00998 86.3322 7.82282 86.5308 7.46445L86.5422 10.5733ZM75.353 8.62172C75.5447 8.91161 75.757 9.16954 75.983 9.37954C76.0446 9.43889 76.1017 9.49139 76.1519 9.54161C76.4167 9.79726 76.6677 10.0392 77.2293 10.3839L79.1763 11.863C79.2174 11.895 79.263 11.9246 79.3064 11.952C80.0277 12.3811 80.8061 12.8605 81.0937 13.1344C81.605 13.6389 81.6027 13.8009 81.6027 13.9196C81.6027 14.0041 81.6027 14.0817 81.605 14.1502C81.605 14.1661 81.6073 14.1844 81.5685 14.2141C81.2147 14.4857 80.9225 14.6204 80.7741 14.5793C80.6029 14.5336 80.6052 14.5062 80.4728 14.5245C80.2719 14.4606 79.5529 14.1524 78.5691 12.8559C78.5554 12.8377 78.5395 12.8171 78.5258 12.8011C78.5212 12.7966 78.1423 12.3401 77.5077 11.4065C77.4781 11.3631 77.4461 11.322 77.4119 11.2809C76.5787 10.3086 75.8004 10.32 75.3598 10.4432L75.353 8.62172ZM97.2453 11.1759C96.8709 11.1782 96.5559 11.306 96.2797 11.5343L96.2683 7.97803C96.944 8.35009 97.5146 8.15379 97.768 8.02368C97.9552 7.92781 98.1035 7.80684 98.2222 7.66988L98.2336 11.4521C97.9438 11.2695 97.6014 11.1737 97.2453 11.1759ZM92.3217 6.47837C92.3035 5.74109 92.2807 4.87371 92.2692 4.456L93.0613 4.45371C93.5064 4.561 93.8716 4.77556 94.1661 5.03121C93.5886 5.04719 92.7326 5.29142 92.3217 6.47837ZM93.9629 14.3054C94.2391 14.3328 94.5062 14.3099 94.7573 14.2415C94.4856 14.9354 94.0291 15.0632 92.5728 14.9285C92.5043 14.9217 92.4382 14.9171 92.372 14.9103C92.3651 14.3191 92.3583 13.705 92.3537 13.1549C92.8216 14.1045 93.6548 14.2734 93.9629 14.3054ZM123.655 25.942C123.568 25.9968 123.491 26.047 123.427 26.0904C122.972 26.394 121.477 26.8642 120.957 26.7615C117.903 26.1566 116.974 23.8831 116.876 23.3262C116.892 23.2075 116.898 23.0911 116.908 22.9746C116.953 22.3036 116.997 22.2921 117.264 22.2191C119.151 21.7101 119.948 20.0278 120.119 19.1171C120.128 19.0691 120.135 19.0212 120.14 18.9733C120.279 17.3161 119.697 16.3049 119.183 15.7457C119.055 15.6064 118.921 15.4855 118.784 15.3759L121.185 16.7226C122.484 17.4508 123.751 18.2383 124.851 19.0052C125.527 19.4732 126.017 20.4958 126.052 21.1531C126.214 24.3237 124.55 25.3759 123.655 25.942ZM111.708 7.60368C111.804 7.62423 111.902 7.63792 112 7.63792C112.098 7.63792 112.199 7.62651 112.299 7.60597C112.591 7.54206 112.856 7.46445 113.109 7.37771C113.107 7.4576 113.1 7.53521 113.1 7.61738C113.105 9.34302 114.136 11.7808 115.415 13.0636C116.024 13.6571 116.816 14.2437 117.779 14.8121C117.072 14.5405 116.46 14.5313 116.344 14.5291C114.1 14.561 112.641 15.4467 111.731 16.5606L111.708 7.60368ZM38.375 1.60048C38.3796 1.60276 38.3841 1.60504 38.3887 1.60732C38.3841 1.60504 38.3773 1.60504 38.3727 1.60504L38.375 1.60048ZM35.5674 4.26882C35.7546 4.11361 36.0719 3.84654 36.2659 3.4197C36.5992 3.88763 37.1287 4.18208 37.624 4.3236L38.2677 6.67468C37.9185 7.92782 37.5487 9.22433 37.2177 10.3451C36.4234 7.59227 35.7295 5.14305 35.5195 4.30762C35.5378 4.29393 35.5515 4.28252 35.5674 4.26882Z" fill="#2B2422"/>
<path d="M131.256 19.1925C131.119 17.7704 130.553 15.8348 129.586 14.7026C128.819 13.833 127.424 12.5296 125.144 11.265L121.635 9.32485C120.638 8.77703 119.697 8.25888 119.255 7.7841C118.832 7.34128 118.709 6.76607 118.584 6.00368C118.586 5.74575 118.867 4.94684 119.056 4.73684C119.36 4.39674 120.337 3.995 120.768 3.97902C121.197 3.96532 122.158 4.40815 122.822 4.93086C123.719 5.63847 125.251 7.52845 125.701 8.99615C125.726 9.07833 125.765 9.15594 125.815 9.2267C126.1 9.6193 126.605 9.9731 127.168 9.78821C128.038 9.50289 128.036 8.30225 128.033 7.72475C128.033 7.68595 128.031 7.64714 128.024 7.61062L127.214 2.23969C127.212 2.22599 127.209 2.2123 127.207 2.1986C127.12 1.77861 126.844 1.27872 126.326 1.14176C126.018 1.05959 125.548 1.08013 125.057 1.6348L125 1.701C124.863 1.85622 124.511 2.25567 124.331 2.33328C124.055 2.30817 123.662 2.04567 123.448 1.90187C123.334 1.82654 123.245 1.76491 123.153 1.71926C122.252 1.26274 121.234 1.21937 120.453 1.23079C118.46 1.26274 116.767 1.9498 115.413 3.25773C115.212 2.10502 114.329 1.19655 113.308 1.14176C112.69 1.10752 112.192 1.33122 111.813 1.64394C111.546 1.44307 111.151 1.33579 110.649 1.33579C110.647 1.33579 110.642 1.33579 110.64 1.33579L107.716 1.34492C106.655 1.3472 106.321 1.79687 106.228 2.17121C106.137 2.53871 106.212 3.0774 107.098 3.5499C107.584 3.81011 107.696 4.01555 107.718 4.07033C107.714 4.10457 107.712 4.14109 107.712 4.17533L107.73 10.126L104.331 3.29424C103.541 1.50241 102.599 1.34948 102.265 1.36089L98.5994 1.37002C98.4579 1.37002 98.321 1.40883 98.2 1.48187C98.0356 1.58003 97.5426 1.9247 97.5129 2.47936C97.5084 2.45197 97.5038 2.42458 97.497 2.39719C97.2116 1.33578 96.1799 1.0185 95.5864 1.00024C95.5864 1.00024 87.9352 1.02307 87.4079 1.02536C87.0153 1.02764 86.0772 1.11894 85.8306 1.88589C85.5613 2.72588 86.4538 3.37642 86.746 3.59098C87.134 3.87403 87.15 4.18217 87.1523 4.18902C87.1477 4.22554 87.15 4.20272 87.15 4.23924L87.1797 14.2324C87.1797 14.2598 87.1819 14.2872 87.1842 14.3146C87.239 14.8236 86.7642 15.2345 86.7528 15.2459C86.1342 15.7709 85.4563 16.5538 85.7439 17.3025C85.874 17.6426 86.2301 18.0375 87.134 18.0124C89.6426 17.9279 92.0347 18.2384 93.7832 18.4643C94.7921 18.5944 95.5704 18.6972 96.1571 18.6972C96.9674 18.6972 97.4102 18.5054 97.5883 17.9348C97.8713 17.0309 98.2205 15.5883 98.3689 14.8099C98.6314 13.4472 98.5789 12.7008 98.1863 12.226C97.958 11.9498 97.6156 11.7923 97.2459 11.8015C96.7734 11.8037 96.3397 11.9863 95.4152 14.2552C95.4084 14.2712 95.4038 14.2872 95.397 14.3032C94.945 15.6659 93.9156 15.6796 92.5118 15.5518C92.2972 15.5312 92.1032 15.5152 91.9366 15.5107C91.8772 15.5084 91.827 15.4992 91.8156 15.4856C91.7608 15.4239 91.7311 15.2299 91.7403 15.1112C91.7425 15.0815 91.7448 15.0496 91.7448 15.0199C91.7266 13.6184 91.7083 11.5321 91.7288 11.281C91.7357 11.2034 91.7996 10.8199 92.2995 10.8017H92.3018C92.4387 10.8017 92.6031 11.1235 92.6579 11.8494C92.7788 13.3947 93.6508 13.6458 94.0206 13.6823C94.5684 13.7371 94.9336 13.5248 95.1413 13.3376C95.6229 12.9017 95.6526 12.2603 95.6526 12.1279L95.6389 7.56497C95.6526 7.33671 95.6618 6.57433 95.203 6.07672C94.9541 5.80737 94.6095 5.65672 94.2306 5.65672H94.2283C92.8633 5.66129 92.756 7.19748 92.7218 7.70193L92.7195 7.73617C92.7172 7.76812 92.7126 7.7841 92.7126 7.78639C92.6989 7.7978 92.5643 7.89823 92.0963 7.91649C91.9959 7.91877 91.7859 7.9279 91.722 7.66084C91.7106 7.19976 91.6444 4.51771 91.633 4.25293C91.6261 4.07033 91.6535 3.86718 91.7288 3.83294L93.1258 3.82838C95.2486 4.28718 95.8695 6.59259 95.8946 6.68846C95.9265 6.814 95.9882 6.93041 96.0772 7.02628C96.6729 7.67682 97.1683 7.62204 97.4787 7.46225C97.8211 7.28649 98.2411 6.87791 97.9306 5.35771L97.5677 2.88794C97.6704 3.15729 97.9147 3.4449 98.4785 3.60239C98.6748 3.65718 98.7798 3.72337 98.8323 3.76903L98.8711 16.5287C98.8711 16.5492 98.8734 16.5766 98.8734 16.5995C98.8939 16.8391 98.83 17.1313 98.7706 17.1815C98.3803 17.3664 97.3395 17.8594 97.497 18.7519C97.6316 19.5235 98.5264 19.7791 99.2682 19.8544L101.893 20.3406C101.911 20.3429 101.93 20.3475 101.95 20.3498C102.795 20.4433 103.313 20.2356 103.5 19.7357C103.674 19.2678 103.464 18.8273 102.875 18.4232C102.496 18.1653 102.448 17.9234 102.443 17.8823C102.443 17.88 102.443 17.8777 102.443 17.8754L102.42 10.2904L108.62 22.1804C108.652 22.2397 108.691 22.2968 108.736 22.347C108.914 22.541 109.394 23.066 109.994 23.066C110.115 23.066 110.243 23.0432 110.373 22.993C110.809 22.8218 111.021 22.4064 111.092 21.9932C111.786 27.9599 117.093 29.5486 117.136 29.56C118.451 29.9686 119.732 30.1763 120.941 30.1763C120.953 30.1763 120.964 30.1763 120.976 30.1763C123.101 30.1695 125.084 29.5417 127.036 28.2521C130.213 26.1589 131.633 23.1094 131.256 19.1925ZM111.795 5.29836C111.717 5.40564 111.601 5.53803 111.494 5.63162C111.464 5.65673 111.437 5.68412 111.412 5.71379C111.302 5.80738 111.183 5.90096 111.076 5.98313L111.072 4.35793C111.22 4.74141 111.464 5.06782 111.795 5.29836ZM123.989 26.4717C123.907 26.5242 123.833 26.5698 123.772 26.6109C123.247 26.9624 121.59 27.5239 120.832 27.3756C116.91 26.5995 116.271 23.5089 116.239 23.3171C116.258 23.1939 116.267 23.066 116.276 22.9314C116.328 22.1713 116.426 21.7946 117.095 21.6143C119.083 21.0779 119.483 19.0829 119.499 18.9985C119.503 18.9711 119.508 18.946 119.51 18.9186C119.608 17.7704 119.341 16.846 118.718 16.1681C117.812 15.1843 116.527 15.1523 116.356 15.1523C116.353 15.1523 116.353 15.1523 116.351 15.1523C112.382 15.2094 111.368 18.1311 111.113 19.4413L111.076 7.07422C111.818 7.11759 112.427 6.93041 112.427 6.93041L112.423 6.92813C112.971 6.78661 113.436 6.59715 113.822 6.37118C113.754 6.77063 113.722 7.18606 113.722 7.61519C113.726 9.17192 114.696 11.4568 115.849 12.6141C116.465 13.2167 117.292 13.8124 118.305 14.3922L121.487 16.1772C122.802 16.9145 124.087 17.7134 125.205 18.4917C126.059 19.0829 126.632 20.3201 126.673 21.1236C126.856 24.657 124.918 25.8827 123.989 26.4717Z" fill="white"/>
<path d="M74.9207 3.41514C74.9686 3.39917 74.9663 3.39232 75.0188 3.35808C75.2676 3.19602 76.0277 2.69842 75.7995 1.93832C75.6443 1.42245 75.1101 1.13941 74.2907 1.13941C74.2861 1.13941 74.2838 1.13941 74.2793 1.13941L71.3553 1.14853C70.1432 1.15082 69.8898 1.78538 69.8373 2.05929C69.7871 2.32179 69.7803 2.97917 70.812 3.38775C71.0631 3.48819 71.0928 3.98123 71.0928 3.98123L71.0996 6.7249L68.3765 2.79885C67.5479 1.42473 66.4363 1.19647 66.3107 1.17592C66.2651 1.16908 66.2194 1.16223 66.1738 1.16451L62.4806 1.17592C62.4235 1.17592 62.3664 1.18278 62.3116 1.19419C62.1153 1.23756 61.5036 1.42473 61.2959 1.97712C60.8782 1.1531 59.9583 0.892889 59.4036 0.874628C59.4036 0.874628 48.365 0.906583 47.7875 0.908865C47.1712 0.911148 46.2217 1.33343 46.0391 2.11636C45.9911 2.32636 45.9021 3.04994 46.8311 3.5133C46.9726 3.58406 46.8174 3.98351 46.8197 3.98351C46.806 4.01547 46.7923 4.04743 46.7832 4.08166C46.7672 4.13188 45.5985 7.9575 44.9183 10.1397L43.2475 4.0771C43.2383 4.04743 43.2292 4.02004 43.2178 3.99265C43.1927 3.93102 43.1858 3.88764 43.1835 3.86481C43.2041 3.85112 43.2223 3.83743 43.2406 3.82373C43.914 3.29645 44.1902 2.7395 44.0623 2.16429C43.8706 1.30375 42.8617 1.02984 42.6608 0.984188C42.6015 0.970492 42.5353 0.956798 42.4828 0.963645L37.9838 0.97734C37.9267 0.97734 37.8697 0.984192 37.8149 0.995605C37.1415 1.14854 36.4887 1.65299 36.5549 2.44504C36.6234 3.21428 37.347 3.632 37.9473 3.75526C37.9564 3.75754 37.9655 3.75754 37.9724 3.75982C38.0386 3.80319 38.1504 3.96068 38.2143 4.09307L38.922 6.67469C38.3148 8.86369 37.6391 11.1896 37.2077 12.5432C36.2011 9.08282 34.9229 4.62264 34.8498 4.1684C34.8475 4.14329 34.8452 4.12047 34.843 4.10221C34.8498 4.09308 34.8589 4.08395 34.8658 4.0771C34.9617 3.96297 35.0621 3.87851 35.1694 3.78949C35.4273 3.57493 35.8153 3.24852 35.8131 2.61396C35.8108 1.84245 35.3794 1.34484 35.2926 1.25125C35.1465 1.09604 34.9411 1.00701 34.7288 1.00473L29.0361 0.963645C29.0109 0.963645 28.9904 0.963648 28.9676 0.96593C28.1961 1.02756 27.5935 1.40647 27.1529 1.68266C27.0799 1.72831 26.9931 1.78309 26.9178 1.82646C26.6393 1.6507 26.1668 1.37451 25.3771 1.12571C24.1673 0.744515 23.567 0.616692 22.5809 0.621257C20.7913 0.639518 19.3191 1.23071 17.9518 2.48157C16.5434 3.76438 15.8336 5.38959 15.8404 7.31153C15.845 8.86825 16.8151 11.1531 17.9678 12.3104C18.5841 12.913 19.4104 13.511 20.4238 14.0885L23.6058 15.8735C25.2858 16.8139 26.5526 17.6494 27.3218 18.1858C28.1207 18.7405 28.7553 20.1579 28.7918 21.055C28.9333 24.6158 27.0205 25.8325 26.1029 26.4168C24.4275 27.4828 23.2588 27.3709 22.9415 27.3116C19.1844 26.6154 18.3627 23.7302 18.3558 23.2691C18.3764 23.1413 18.3855 23.0089 18.3969 22.8674C18.4494 22.1096 18.5476 21.7306 19.2141 21.5526C21.2022 21.0162 21.6039 19.0189 21.6199 18.9345C21.6245 18.9071 21.6291 18.882 21.6313 18.8546C21.7295 17.7064 21.4624 16.782 20.8416 16.1063C19.9285 15.1134 18.632 15.0906 18.4745 15.0906C13.3775 15.1659 13.1538 19.9662 13.1515 20.005C12.9621 23.9402 14.6284 26.3141 16.0573 27.6106C17.6048 29.0167 19.2049 29.4823 19.2529 29.496C20.5631 29.9069 21.8322 30.1146 23.0237 30.1146C23.0488 30.1146 23.0716 30.1146 23.0968 30.1146C25.3109 30.1032 27.1803 29.5097 29.1593 28.1881C30.9511 26.9897 33.882 24.189 33.3753 18.8865C33.2383 17.4645 32.6699 15.5289 31.7044 14.399C30.9397 13.5293 29.5474 12.2259 27.2602 10.9591L23.7747 9.03032C22.7681 8.47793 21.8162 7.9575 21.3688 7.47816C20.926 7.01251 20.7092 6.4624 20.7069 5.79817C20.7046 4.91481 20.8324 4.54275 21.2821 4.13873C21.6199 3.83286 21.7204 3.74156 22.6151 3.69362C23.3319 3.65482 23.6811 3.82601 24.9388 4.82351C25.74 5.46263 26.9429 7.3549 27.404 8.49848C27.4382 8.58521 27.4885 8.6651 27.5524 8.73358C27.719 8.91619 28.3216 9.50281 29.0315 9.42292C29.4172 9.37955 29.7414 9.15358 29.9468 8.78836C30.029 8.64228 30.0609 8.47565 30.0427 8.3113L29.6409 5.00611C30.8119 9.06227 34.213 20.8884 34.5599 22.5364C34.6352 22.8993 34.8681 24.0018 35.7697 24.1091C36.6188 24.2095 37.1529 23.2988 37.3401 22.9016C37.3584 22.8651 37.3721 22.8286 37.3835 22.7898C37.4086 22.703 39.6227 15.3097 40.5426 12.4588C41.5698 15.7457 42.8708 20.0187 42.969 20.6601C43.0945 21.4887 43.5122 21.7329 43.8432 21.7923C44.3271 21.879 44.7905 21.5914 45.1192 21.0002C45.1443 20.9546 45.1648 20.9066 45.1808 20.8564C45.3611 20.2972 49.1639 8.40946 50.182 5.0472L50.2162 16.4465C50.2162 16.4647 50.2162 16.483 50.2185 16.5035C50.2664 17.1541 49.8145 17.5718 49.7848 17.5969C48.5978 18.672 48.6823 19.2655 48.8512 19.6193C48.9722 19.8726 49.3032 20.2789 50.166 20.1442C50.7572 20.0529 53.2657 19.6238 55.6921 19.1353C60.7001 18.1264 60.8074 17.8069 60.9718 17.3207C60.99 17.2682 61.0083 17.2066 61.0265 17.1381C61.0311 17.1586 61.0334 17.1792 61.038 17.1997C61.2274 17.9279 62.0651 18.0534 62.3162 18.0762C62.339 18.0785 62.3596 18.0785 62.3824 18.0785C62.4098 18.0785 62.4395 18.0762 62.4669 18.0739L66.466 17.638C66.5025 17.6334 66.5367 17.6265 66.5732 17.6197C67.2557 17.4462 67.6643 17.0582 67.6963 16.5492C67.7465 15.7617 66.9019 15.433 66.6235 15.3234C66.03 15.0929 65.8611 14.6911 65.8223 14.5702L65.8017 7.76577L72.3048 16.9829C72.3231 17.0102 72.3436 17.0354 72.3665 17.0582C72.581 17.2933 73.2338 18.0055 74.0031 17.7064C74.5577 17.4896 74.754 16.8756 74.754 16.3711L74.7175 3.95155C74.7061 3.59547 74.8636 3.45395 74.9207 3.41514ZM61.8026 3.34211C62.2044 3.6571 62.3961 3.85569 62.4806 3.95612L62.4874 6.07437C62.4509 5.85067 62.3938 5.63154 62.3299 5.43524L61.7022 3.25308C61.7341 3.28276 61.7638 3.31243 61.8026 3.34211ZM55.4776 16.3095C55.3406 16.3049 55.0827 16.2981 55.0781 15.926C55.0781 15.9146 55.0781 15.9032 55.0781 15.8918C55.0576 14.383 55.0393 12.1369 55.0599 11.8744C55.069 11.7831 55.1512 11.3198 55.7697 11.2969C55.7812 11.2969 55.7949 11.2969 55.8063 11.2969C56.4545 11.2969 56.6873 11.9452 56.6965 12.0319C56.8243 13.6663 57.541 14.0566 58.1162 14.0954C58.47 14.1205 58.7759 14.0155 59.0224 13.8397C58.0295 15.5859 56.1509 16.3392 55.4776 16.3095ZM61.9008 15.6909C61.7501 15.7914 61.4283 16.0082 61.2137 16.3186C61.4237 15.3052 61.6428 13.9561 61.7068 13.5042C61.7867 12.945 61.8186 12.2511 61.3621 11.8425C61.1064 11.6142 60.7572 11.5343 60.4057 11.6233C60.077 11.7055 59.8487 11.9383 59.6867 12.2122L59.6707 7.52153C59.6798 7.16773 59.6456 6.29121 59.1252 5.821C58.8741 5.59274 58.5477 5.4923 58.2098 5.53567C57.2078 5.6635 56.6782 6.75914 56.612 7.71098C56.5915 7.83424 56.2925 8.27935 55.5575 8.30674C55.2219 8.32044 55.1854 8.20402 55.174 8.12641C55.1694 7.79315 55.1261 4.97188 55.1238 4.36242C55.1238 4.25971 55.2425 4.08395 55.3794 3.94014L56.8403 3.88536C58.8512 4.32134 60.3075 7.06272 60.3212 7.09012C60.3806 7.20425 60.465 7.30012 60.57 7.37316C61.305 7.88218 61.8026 7.73381 62.0879 7.52153C62.3139 7.35262 62.4349 7.11979 62.4897 6.85501L62.5125 14.7756C62.5125 14.8281 62.5079 14.8235 62.5171 14.8646C62.5102 14.9491 62.46 15.3166 61.9008 15.6909Z" fill="white"/>
<path d="M85.5005 10.1328L85.3841 9.9913C84.882 9.37956 84.2588 8.62174 83.0148 7.88218L81.4284 6.72947C81.4079 6.7135 81.385 6.6998 81.3622 6.6861C80.6752 6.28437 80.2209 5.94426 79.9287 5.61328C79.8717 5.54937 79.8123 5.48547 79.7507 5.41927C79.5407 5.19558 79.3033 4.94221 79.3033 4.77558C79.301 4.24373 79.4517 3.97667 79.5088 3.91732C79.6822 3.74385 80.0018 3.60689 80.2346 3.60461C80.7665 3.60917 80.9377 3.73015 81.2138 3.92417L81.2481 3.947C82.766 5.00155 83.6927 6.23187 84.1378 6.82534C84.2154 6.92806 84.2771 7.01023 84.3273 7.07186C84.834 7.69501 85.2951 7.66077 85.5896 7.52153C85.8429 7.40284 86.2378 7.06958 86.0643 6.18393L85.3065 1.90408C85.2951 1.8356 85.2746 1.76941 85.2449 1.70778C84.9778 1.13941 84.5396 1.01158 84.2999 0.984193C83.622 0.908868 83.0719 1.44528 82.8208 1.7443C82.8048 1.74886 82.7888 1.75114 82.7774 1.75342C82.5423 1.59821 82.0356 1.28549 81.6224 1.16908C81.5585 1.15082 81.4923 1.13256 81.4261 1.11202C81.0518 1.00017 80.5884 0.854086 80.0474 0.863216C78.6574 0.865499 77.1166 1.47952 76.3862 2.31951C75.9388 2.83309 75.0189 4.32362 75.0235 5.65894C75.0258 6.62904 75.5439 8.11501 76.409 8.91848C76.4752 8.98011 76.5323 9.03489 76.587 9.08739C76.8404 9.33162 77.0618 9.5439 77.5822 9.86347L79.5544 11.3609C79.5772 11.3791 79.6023 11.3951 79.6274 11.4088C80.7071 12.0525 81.2618 12.4245 81.5334 12.6825C82.2342 13.3718 82.2296 13.6754 82.2273 13.9196C82.2273 13.9881 82.2273 14.0543 82.2296 14.1114C82.2456 14.4264 82.0607 14.6181 81.9488 14.7048C81.2321 15.2572 80.8441 15.2412 80.6135 15.1796C80.5314 15.1568 80.5062 15.1477 80.4309 15.1522C80.2962 15.1294 79.3535 14.9194 78.0707 13.228C78.0639 13.2166 78.0547 13.2075 78.0456 13.196C78.041 13.1915 77.6462 12.719 76.9888 11.7512C76.9728 11.7261 76.9545 11.7032 76.9363 11.6827C76.4204 11.0801 75.8772 10.8678 75.4024 11.0869C74.9436 11.2969 74.7655 11.7694 74.8751 12.493C75.0554 13.6731 75.7425 16.6884 75.7722 16.8185C75.8315 17.0719 76.0826 17.9073 76.845 18.0032C77.5252 18.0899 77.9497 17.5079 78.1575 17.1472C78.1917 17.1449 78.2282 17.1404 78.267 17.1358C78.3903 17.1198 78.6984 17.2613 78.7897 17.3047C78.9518 17.3823 80.3487 18.0329 81.2458 18.0329C81.2869 18.0329 81.328 18.0306 81.3691 18.0283C82.8071 17.9142 83.6836 17.6928 84.7747 16.7523C85.8566 15.821 86.5802 14.2894 86.5779 12.9404C86.5688 12 86.1808 10.9797 85.5005 10.1328Z" fill="white"/>
<path d="M132.478 28.1516C132.877 28.5533 133.076 29.0349 133.078 29.601C133.078 30.1717 132.882 30.6601 132.484 31.0641C132.087 31.4682 131.606 31.669 131.035 31.6713C130.467 31.6713 129.983 31.4727 129.583 31.0733C129.188 30.6715 128.988 30.1854 128.985 29.6124C128.985 29.0441 129.182 28.5601 129.576 28.1607C129.978 27.7567 130.458 27.5558 131.024 27.5535C131.592 27.5512 132.076 27.7498 132.478 28.1516ZM132.713 27.921C132.247 27.4577 131.683 27.2294 131.024 27.2294C130.366 27.234 129.809 27.4645 129.348 27.9302C128.883 28.3958 128.652 28.9596 128.654 29.6124C128.657 30.2744 128.889 30.8382 129.35 31.3015C129.814 31.7672 130.378 32 131.037 32C131.697 31.9977 132.261 31.7626 132.722 31.2947C133.188 30.8245 133.418 30.2607 133.416 29.601C133.414 28.9436 133.181 28.3821 132.713 27.921ZM131.384 29.496C131.286 29.5325 131.14 29.5554 130.946 29.5554L130.533 29.5576L130.528 28.6104H130.923C131.177 28.6104 131.364 28.64 131.48 28.704C131.597 28.7701 131.656 28.898 131.656 29.0874C131.654 29.286 131.565 29.423 131.384 29.496ZM130.074 30.9112H130.533V29.8772H130.896C131.138 29.8749 131.311 29.9046 131.409 29.9594C131.571 30.0575 131.656 30.2561 131.656 30.5597V30.7674L131.667 30.8519C131.67 30.8633 131.672 30.8724 131.674 30.8815C131.676 30.8884 131.679 30.8998 131.681 30.9067L132.112 30.9044L132.096 30.8724C132.085 30.8519 132.076 30.8062 132.071 30.7377C132.069 30.6693 132.067 30.6031 132.067 30.5414V30.352C132.065 30.2196 132.017 30.0849 131.923 29.9457C131.827 29.8064 131.676 29.722 131.471 29.69C131.633 29.6649 131.759 29.6216 131.85 29.5622C132.021 29.4504 132.106 29.2769 132.103 29.0463C132.103 28.7176 131.969 28.4985 131.697 28.3844C131.546 28.3228 131.307 28.2908 130.983 28.2908L130.067 28.2954L130.074 30.9112Z" fill="black"/>
<path d="M29.257 8.4117L28.6795 3.64566C29.1816 2.32404 29.992 3.43566 29.992 3.43566C29.992 3.43566 34.8881 20.3451 35.3172 22.3812C35.7464 24.4195 36.6252 22.5706 36.6252 22.5706C36.6252 22.5706 39.6313 12.5226 40.1289 11.2124C40.6243 9.90223 40.937 11.1326 40.937 11.1326C40.937 11.1326 43.5756 19.5097 43.7331 20.5482C43.8906 21.5868 44.4271 20.6236 44.4271 20.6236C44.4271 20.6236 49.3049 5.37814 49.6473 4.06794C49.9897 2.76001 50.4143 2.91295 50.4143 2.91295C50.8754 2.79653 50.953 3.60457 50.953 3.60457L50.9918 16.451C51.0739 17.5284 50.3047 18.1835 50.3047 18.1835C50.3047 18.1835 48.7708 19.5713 50.0399 19.3773C51.3068 19.1787 60.0263 17.6653 60.2249 17.0787C60.428 16.4738 60.8183 14.2049 60.9302 13.3969C61.0443 12.5888 60.9028 12.3058 60.5946 12.3857C60.2865 12.4633 60.1358 13.2713 60.1358 13.2713C59.257 15.8507 56.648 17.1289 55.4542 17.0924C54.2604 17.0559 54.297 15.9032 54.297 15.9032C54.297 15.9032 54.2467 12.1346 54.2833 11.7899C54.3221 11.443 54.6257 10.5573 55.7418 10.5163C56.858 10.4752 57.4378 11.4727 57.4789 11.9725C57.5177 12.4724 57.6364 13.2805 58.1728 13.317C58.7115 13.3558 58.9032 12.7395 58.9032 12.7395L58.8872 7.5078C58.8872 7.5078 58.9215 6.23868 58.3052 6.31857C57.6912 6.39617 57.4241 7.28182 57.3876 7.78399C57.3488 8.2816 56.7371 9.05311 55.5821 9.09648C54.4271 9.13985 54.3883 8.17888 54.3883 8.17888C54.3883 8.17888 54.3403 5.02434 54.3358 4.37152C54.3358 3.71641 55.0639 3.17544 55.0639 3.17544L56.8968 3.10697C59.3597 3.5612 61.0101 6.73628 61.0101 6.73628C62.1902 7.55345 61.5716 5.6589 61.5716 5.6589L60.6768 2.54545C60.4417 1.70089 59.4054 1.66437 59.4054 1.66437C59.4054 1.66437 48.3668 1.69632 47.7893 1.69861C47.2118 1.70089 46.2486 2.35599 47.1776 2.81707C48.0244 3.23479 47.5291 4.31445 47.5291 4.31445C47.5291 4.31445 45.4702 11.0527 45.2054 11.8219C44.9361 12.5911 44.5891 11.8995 44.5891 11.8995L42.4891 4.28935C42.1787 3.52012 42.7562 3.21197 42.7562 3.21197C44.1372 2.1323 42.4823 1.75111 42.4823 1.75111L37.9833 1.7648C37.9833 1.7648 37.2917 1.92002 37.3305 2.3811C37.3716 2.84446 38.102 2.99512 38.102 2.99512C38.6407 3.07044 38.9511 3.83968 38.9511 3.83968L39.7295 6.68378C39.7295 6.68378 37.8646 13.4197 37.4811 14.0748C37.0977 14.7299 36.8671 14.1912 36.8671 14.1912C36.8671 14.1912 34.1463 4.89195 34.0687 4.27565C33.9888 3.66164 34.2581 3.58174 34.2581 3.58174C34.6416 3.11838 35.0251 3.04305 35.0228 2.62078C35.0228 2.12089 34.7146 1.79448 34.7146 1.79448L29.0218 1.75339C28.0221 1.83328 27.3053 2.68012 26.8443 2.6824C26.6731 2.6824 26.3284 2.25556 25.1369 1.88122C23.9431 1.50687 23.4318 1.40415 22.5849 1.41328C20.9826 1.42926 19.7157 1.93371 18.474 3.06816C17.23 4.20261 16.6114 5.61781 16.616 7.31834C16.6183 8.60344 17.4491 10.6989 18.506 11.7603C19.0766 12.3172 19.8413 12.8696 20.7977 13.4151L23.9796 15.2001C25.8102 16.225 27.1296 17.1129 27.7596 17.5535C28.7867 18.2679 29.5217 19.9365 29.5651 21.0344C29.7203 24.9399 27.5815 26.4099 26.5133 27.0879C25.0113 28.042 23.6737 28.2588 22.7881 28.0922C18.385 27.275 17.4697 23.7347 17.5701 23.1732C17.6728 22.6071 17.4628 21.2239 18.999 20.8084C20.5375 20.393 20.8388 18.802 20.8388 18.802C21.0876 15.8803 18.4717 15.8872 18.4717 15.8872C14.0618 15.9511 13.9202 20.0552 13.9202 20.0552C13.5824 27.081 19.4761 28.761 19.4761 28.761C20.7315 29.1536 21.9321 29.3499 23.0826 29.3431C25.1688 29.3316 26.8899 28.7656 28.7137 27.5489C30.2841 26.4989 33.062 23.9447 32.5873 18.9732C32.4617 17.663 31.9322 15.8917 31.1081 14.9285C30.2681 13.9744 28.9214 12.7897 26.8739 11.6553L23.7399 9.92049C22.5142 9.24485 21.3775 8.65366 20.7954 8.03051C20.2133 7.41877 19.9212 6.67693 19.9166 5.81183C19.9143 4.8463 20.0558 4.19576 20.7475 3.57033C21.2588 3.10925 21.5509 2.97686 22.5644 2.92436C23.5916 2.87186 24.1303 3.20283 25.4154 4.22315C26.3855 4.99695 27.6523 7.06269 28.1179 8.21768C28.1225 8.21312 28.894 9.05539 29.257 8.4117Z" fill="#E10E18"/>
<path d="M87.2089 2.96085C87.9804 3.52236 87.9348 4.24138 87.9348 4.24138L87.9644 14.2346C88.0672 15.191 87.2614 15.8461 87.2614 15.8461C87.2614 15.8461 85.5654 17.2818 87.1108 17.2316C92.1461 17.0627 96.6177 18.4322 96.8437 17.7018C97.1153 16.8299 97.46 15.4055 97.6038 14.6614C97.9462 12.8901 97.6358 12.5842 97.2523 12.5865C96.9441 12.5888 96.143 14.5518 96.143 14.5518C95.3486 16.9508 92.9953 16.3254 91.9156 16.2935C90.8359 16.2615 90.9638 15.0312 90.9638 15.0312C90.9638 15.0312 90.9181 11.5274 90.9523 11.2033C90.9843 10.8814 91.2628 10.0574 92.2717 10.0209C93.2806 9.98209 93.4061 11.3243 93.4404 11.7899C93.4769 12.2555 93.6116 12.8559 94.0978 12.9038C94.867 12.9768 94.8716 12.1323 94.8716 12.1323L94.8579 7.53972C94.8579 7.53972 94.9514 6.43951 94.2324 6.44179C93.5796 6.44408 93.534 7.32972 93.502 7.79537C93.4678 8.26102 93.171 8.66275 92.1279 8.70156C91.0847 8.73808 90.9432 7.74515 90.9432 7.74515C90.9432 7.74515 90.8656 4.56551 90.8542 4.28475C90.8085 3.08639 91.6714 3.05215 91.6714 3.05215L93.2098 3.04758C95.9238 3.57486 96.6588 6.50114 96.6588 6.50114C97.5833 7.51005 97.1656 5.49681 97.1656 5.49681L96.741 2.60476C96.531 1.81955 95.5883 1.7876 95.5883 1.7876C95.5883 1.7876 87.937 1.81042 87.4143 1.8127C87.4143 1.80814 85.6499 1.82412 87.2089 2.96085Z" fill="#E10E18"/>
<path d="M125.648 2.15512C125.335 2.50664 124.815 3.1275 124.356 3.12066C123.703 3.10924 123.023 2.53175 122.802 2.4199C122.121 2.07523 121.316 2.00219 120.466 2.01588C118.57 2.04784 117.043 2.7212 115.858 3.91499C115.091 4.68651 114.507 5.91455 114.511 7.61508C114.513 8.89789 115.347 10.9956 116.401 12.057C116.972 12.6139 117.736 13.1663 118.693 13.7119L121.875 15.4969C123.705 16.524 125.025 17.4097 125.655 17.8502C126.682 18.5624 127.403 19.9913 127.458 21.0869C127.675 25.3942 124.975 26.75 124.208 27.2659C123.568 27.6927 121.699 28.3501 120.681 28.1493C116.419 27.307 115.365 23.7918 115.463 23.228C115.563 22.6642 115.356 21.2787 116.892 20.8655C118.43 20.4501 118.732 18.8591 118.732 18.8591C118.978 15.9351 116.365 15.942 116.365 15.942C111.952 16.0059 111.811 20.11 111.811 20.11C111.473 27.1358 117.367 28.818 117.367 28.818C118.62 29.2084 119.823 29.4024 120.971 29.4001C123.258 29.3933 125.118 28.5852 126.602 27.606C128.177 26.5674 130.95 24.2483 130.473 19.2745C130.348 17.9643 129.82 16.193 128.994 15.2275C128.156 14.2757 126.807 13.0933 124.76 11.9566L121.626 10.2218C120.405 9.54614 119.264 8.95496 118.684 8.32953C118.102 7.71779 117.942 6.96682 117.805 6.11085C117.743 5.72053 118.125 4.60434 118.471 4.21858C118.933 3.705 120.119 3.22337 120.736 3.20055C121.466 3.17316 122.621 3.7826 123.304 4.32129C124.278 5.08824 125.926 7.08094 126.445 8.77234C126.445 8.77234 127.255 9.88625 127.248 7.73377L126.438 2.36283C126.445 2.35599 126.26 1.46121 125.648 2.15512Z" fill="#E10E18"/>
<path d="M66.3779 16.8664L62.3788 17.3024C62.3788 17.3024 61.0709 17.1928 62.3377 16.3414C63.4128 15.6201 63.2941 14.7733 63.2941 14.7733L63.2622 3.74608C63.2622 3.74608 63.2279 3.46076 62.2852 2.72348C61.5639 2.16196 62.4884 1.95425 62.4884 1.95425L66.1816 1.94284C66.1816 1.94284 67.0536 2.09349 67.7224 3.22109L71.3791 8.49159C71.3791 8.49159 71.8949 9.1581 71.8904 7.9255L71.879 3.97663C71.879 3.97663 71.8767 2.96316 71.1052 2.65729C70.3359 2.35142 70.4889 1.92686 71.3608 1.92686L74.2848 1.91773C74.2848 1.91773 75.7959 1.91317 74.593 2.70066C74.593 2.70066 73.915 2.99739 73.931 3.96978L73.9675 16.3802C73.9675 16.3802 73.9698 17.663 72.9427 16.5377L65.9374 6.61073C65.9374 6.61073 65.0631 5.58813 65.0129 6.76823L65.038 14.666C65.038 14.666 65.1887 15.611 66.3368 16.0584C67.606 16.556 66.3779 16.8664 66.3779 16.8664Z" fill="#E10E18"/>
<path d="M102.042 19.5713L99.3846 19.0782C99.3846 19.0782 97.0724 18.8545 99.113 17.889C99.7658 17.5785 99.6608 16.5286 99.6608 16.5286L99.622 3.56573C99.622 3.56573 99.517 3.07954 98.6976 2.85128C97.8462 2.61389 98.6063 2.15965 98.6063 2.15965L102.286 2.15052C102.286 2.15052 102.952 2.09803 103.626 3.63421L107.753 11.9291C107.753 11.9291 108.524 12.5934 108.522 11.3631L108.499 4.18431C108.499 4.18431 108.691 3.51779 107.47 2.86725C106.739 2.47693 106.851 2.13683 107.723 2.13454L110.645 2.12541C110.645 2.12541 112.158 2.12085 110.953 2.90606C110.953 2.90606 110.275 3.2028 110.291 4.17747L110.343 21.6644C110.343 21.6644 110.346 22.9472 109.316 21.8219L102.302 8.3683C102.302 8.3683 101.58 6.87092 101.638 9.12612L101.663 17.8821C101.663 17.8821 101.626 18.519 102.436 19.0714C103.386 19.7196 102.042 19.5713 102.042 19.5713Z" fill="#E10E18"/>
<path d="M77.5596 16.6039C77.6417 16.4418 77.8289 16.3688 78.0937 16.3688C78.201 16.3688 78.3996 16.2547 79.1254 16.5993C79.6892 16.8664 80.794 17.2887 81.3053 17.2499C82.6885 17.1403 83.3733 16.928 84.2635 16.1634C85.1537 15.3964 85.7974 14.0862 85.7952 12.9472C85.7929 12.0981 85.4025 11.2581 84.9027 10.6372C84.3936 10.0232 83.8321 9.2745 82.5881 8.54179L80.972 7.36626C80.2279 6.93028 79.7052 6.54224 79.3514 6.1405C78.9976 5.74561 78.5274 5.34388 78.5274 4.78464C78.5251 4.1615 78.6917 3.64335 78.9611 3.374C79.2669 3.06585 79.7805 2.83303 80.2416 2.83075C81.0337 2.82846 81.3761 3.0864 81.7048 3.31466C83.581 4.61802 84.6265 6.19301 84.946 6.58789C85.487 7.25213 85.3044 6.32996 85.3044 6.32996L84.5489 2.0501C84.1882 1.28315 83.371 2.33543 83.371 2.33543C83.2638 2.46325 82.7525 2.67782 82.3964 2.44271C82.3188 2.39249 81.7824 2.03412 81.4217 1.93369C81.0314 1.82413 80.5772 1.65293 80.0613 1.6575C78.815 1.65978 77.5253 2.22586 76.9866 2.84673C76.6306 3.25531 75.8134 4.57465 75.8179 5.67029C75.8202 6.49887 76.3064 7.75658 76.9547 8.35918C77.3199 8.69928 77.4523 8.87733 78.0343 9.22885L80.0385 10.7513C81.1501 11.4133 81.7458 11.8105 82.0928 12.1414C83.1656 13.1983 83.0035 13.7347 83.0218 14.0862C83.0492 14.5975 82.8164 15.0472 82.4375 15.3393C81.8463 15.7936 81.1569 16.1428 80.4265 15.9511C80.4265 15.9511 79.1574 15.9556 77.4568 13.7164C77.4568 13.7164 77.046 13.2302 76.3498 12.2076C76.3498 12.2076 75.4733 11.185 75.6559 12.3902C75.8339 13.5566 76.5415 16.6587 76.5415 16.6587C76.5415 16.6587 76.8451 17.9917 77.5596 16.6039Z" fill="#E10E18"/>
<path d="M111.729 3.05217C111.729 3.05217 112.19 1.86979 113.267 1.92685C114.792 2.00674 115.917 5.37813 112.003 6.22953C112.003 6.22953 113.215 5.20237 112.345 4.72074C111.8 4.41715 111.601 3.7689 111.729 3.05217Z" fill="#E10E18"/>
</svg>
