<svg width="344" height="148" viewBox="0 0 344 148" fill="none" xmlns="http://www.w3.org/2000/svg" xmlns:xlink="http://www.w3.org/1999/xlink">
<mask id="mask0" mask-type="alpha" maskUnits="userSpaceOnUse" x="0" y="0" width="344" height="148">
<rect x="0.5" width="343" height="148" rx="10" fill="#FD4B47"/>
</mask>
<g mask="url(#mask0)">
<path opacity="0.4" d="M217.204 0.000120986C200.283 -0.0286121 183.722 5.06113 169.555 14.6443C164.958 17.7482 159.592 19.4078 154.104 19.4228C148.617 19.4379 143.242 17.8077 138.629 14.729C129.416 8.57878 118.699 5.28087 107.738 5.2232C75.6359 4.99198 49.3936 32.0682 49.5003 65.313C49.5218 78.0934 53.5095 90.5281 60.8749 100.783C65.2536 106.867 67.4247 114.353 67.0075 121.929C66.9927 122.166 66.9803 122.402 66.9703 122.638C64.7698 168.39 101.402 206.254 145.578 203.895C159.008 203.19 172.002 198.728 183.177 190.983C193.036 184.193 204.639 180.634 216.478 180.768H217.222C265.424 180.768 304.5 140.301 304.5 90.3828C304.5 40.4642 265.417 0.000120986 217.204 0.000120986Z" fill="#FCDFD8"/>
<path opacity="0.5" fill-rule="evenodd" clip-rule="evenodd" d="M182.521 5C180.852 5 179.5 6.34315 179.5 8V22C179.5 23.6569 180.852 25 182.521 25H202.479C204.148 25 205.5 23.6569 205.5 22V8C205.5 6.34315 204.148 5 202.479 5H182.521ZM184.689 9.14575C184.133 9.14575 183.682 9.59347 183.682 10.1458C183.682 10.698 184.133 11.1458 184.689 11.1458H197.78C198.336 11.1458 198.786 10.698 198.786 10.1458C198.786 9.59347 198.336 9.14575 197.78 9.14575H184.689ZM183.682 14.1458C183.682 13.5935 184.133 13.1458 184.689 13.1458H194.255C194.811 13.1458 195.262 13.5935 195.262 14.1458C195.262 14.698 194.811 15.1458 194.255 15.1458H184.689C184.133 15.1458 183.682 14.698 183.682 14.1458ZM184.689 17.1458C184.133 17.1458 183.682 17.5935 183.682 18.1458C183.682 18.698 184.133 19.1458 184.689 19.1458H194.255C194.811 19.1458 195.262 18.698 195.262 18.1458C195.262 17.5935 194.811 17.1458 194.255 17.1458H184.689Z" fill="#FDDEDA"/>
<path opacity="0.5" fill-rule="evenodd" clip-rule="evenodd" d="M41.4503 8C39.2686 8 37.5 9.74609 37.5 11.9V30.1C37.5 32.2539 39.2686 34 41.4504 34H67.5497C69.7314 34 71.5 32.2539 71.5 30.1V11.9C71.5 9.74609 69.7314 8 67.5496 8H41.4503ZM44.2858 13.3895C43.5586 13.3895 42.969 13.9715 42.969 14.6895C42.969 15.4074 43.5586 15.9895 44.2858 15.9895H61.404C62.1312 15.9895 62.7207 15.4074 62.7207 14.6895C62.7207 13.9715 62.1312 13.3895 61.404 13.3895H44.2858ZM42.969 19.8895C42.969 19.1715 43.5586 18.5895 44.2858 18.5895H56.7952C57.5225 18.5895 58.112 19.1715 58.112 19.8895C58.112 20.6074 57.5225 21.1895 56.7952 21.1895H44.2858C43.5586 21.1895 42.969 20.6074 42.969 19.8895ZM44.2858 23.7895C43.5586 23.7895 42.969 24.3715 42.969 25.0895C42.969 25.8074 43.5586 26.3895 44.2858 26.3895H56.7952C57.5225 26.3895 58.112 25.8074 58.112 25.0895C58.112 24.3715 57.5225 23.7895 56.7952 23.7895H44.2858Z" fill="#FDDEDA"/>
<path d="M28.512 66.4054C28.9545 58.8704 47.5295 61.1554 55.8545 73.9379C64.1795 86.7204 74.042 113.688 74.042 113.688L70.7595 114.728C70.7595 114.728 57.187 78.1404 49.1795 75.6654C41.172 73.1904 28.052 74.2679 28.512 66.4054Z" fill="#CAEAC4"/>
<path d="M76.2227 58.3379C76.2227 58.3379 75.1327 48.2454 67.4727 39.6954C59.8127 31.1454 52.9477 28.8754 51.5527 30.4779C50.1577 32.0804 74.1527 62.0504 74.1527 62.0504L76.2227 58.3379Z" fill="#66C58E"/>
<path d="M69.3027 58.6255C69.3027 58.6255 63.3878 49.1255 51.6928 44.308C39.9978 39.4905 32.0853 40.518 31.4653 42.788C30.8453 45.058 69.0252 63.3055 69.0252 63.3055L69.3027 58.6255Z" fill="#96D7B1"/>
<path d="M278.5 139.642C278.495 142.961 279.715 146.166 281.926 148.641H323.103C324.579 146.909 325.618 144.847 326.132 142.63C326.646 140.412 326.62 138.104 326.057 135.898C325.494 133.693 324.409 131.655 322.895 129.955C321.381 128.256 319.481 126.945 317.354 126.132C317.354 125.786 317.389 125.436 317.389 125.086C317.324 121.328 315.785 117.746 313.103 115.111C310.422 112.476 306.814 111 303.055 111C299.296 111 295.687 112.476 293.006 115.111C290.325 117.746 288.786 121.328 288.72 125.086C288.72 125.559 288.72 126.023 288.786 126.482C285.849 127.213 283.241 128.906 281.377 131.291C279.513 133.676 278.5 136.615 278.5 139.642Z" fill="#96D7B1"/>
<path d="M110.167 13.0243C104.3 16.6124 85.4643 27.3143 66.5627 28.7305C65.4608 28.8153 64.4312 29.3118 63.6785 30.1214C62.9257 30.931 62.505 31.9943 62.5 33.1001V101.707C62.4998 106.889 63.8294 111.985 66.3615 116.506C68.8936 121.028 72.5434 124.823 76.9613 127.528C91.4923 136.428 107.42 144.837 111.171 146.796C111.425 146.93 111.708 147 111.995 147C112.281 147 112.564 146.93 112.818 146.796C116.569 144.837 132.497 136.428 147.028 127.528C151.45 124.823 155.103 121.026 157.637 116.502C160.171 111.978 161.502 106.878 161.5 101.692V33.0854C161.495 31.9796 161.074 30.9163 160.322 30.1067C159.569 29.2971 158.539 28.8006 157.437 28.7158C138.525 27.3143 119.7 16.6124 113.833 13.0243C113.281 12.688 112.647 12.5102 112 12.5102C111.353 12.5102 110.719 12.688 110.167 13.0243Z" fill="#FF5D5B"/>
<path d="M110.559 27.8C106.009 30.5919 91.3386 38.9201 76.6243 40.0208C75.765 40.0829 74.9611 40.4681 74.3741 41.099C73.7871 41.7299 73.4605 42.5598 73.46 43.4218V96.8323C73.4593 100.868 74.4944 104.836 76.4661 108.356C78.4378 111.877 81.2799 114.831 84.7203 116.937C96.032 123.868 108.436 130.413 111.355 131.939C111.553 132.042 111.772 132.096 111.995 132.096C112.218 132.096 112.437 132.042 112.635 131.939C115.568 130.413 127.958 123.868 139.269 116.937C142.71 114.831 145.552 111.877 147.524 108.356C149.495 104.836 150.53 100.868 150.53 96.8323V43.4291C150.53 42.5661 150.204 41.7349 149.617 41.1026C149.03 40.4703 148.226 40.0838 147.365 40.0208C132.651 38.9201 117.981 30.5846 113.43 27.7926C112.998 27.5275 112.501 27.3878 111.994 27.3891C111.487 27.3904 110.99 27.5326 110.559 27.8Z" fill="#FDDEDA"/>
<path fill-rule="evenodd" clip-rule="evenodd" d="M92.9455 60.2622C89.7622 60.2622 87.1816 62.8428 87.1816 66.0261V92.9241C87.1816 96.1073 89.7622 98.6879 92.9455 98.6879H131.026C134.21 98.6879 136.79 96.1073 136.79 92.9241V66.0261C136.79 62.8428 134.21 60.2622 131.026 60.2622H92.9455ZM97.0826 68.2274C96.0215 68.2274 95.1613 69.0876 95.1613 70.1487C95.1613 71.2098 96.0215 72.07 97.0826 72.07H122.059C123.12 72.07 123.981 71.2098 123.981 70.1487C123.981 69.0876 123.12 68.2274 122.059 68.2274H97.0826ZM95.1613 77.8338C95.1613 76.7727 96.0215 75.9125 97.0826 75.9125H115.335C116.396 75.9125 117.256 76.7727 117.256 77.8338C117.256 78.8949 116.396 79.7551 115.335 79.7551H97.0826C96.0215 79.7551 95.1613 78.8949 95.1613 77.8338ZM97.0826 83.5977C96.0215 83.5977 95.1613 84.4579 95.1613 85.519C95.1613 86.58 96.0215 87.4402 97.0826 87.4402H115.335C116.396 87.4402 117.256 86.58 117.256 85.519C117.256 84.4579 116.396 83.5977 115.335 83.5977H97.0826Z" fill="#E21C23"/>
<path fill-rule="evenodd" clip-rule="evenodd" d="M209.45 29C207.269 29 205.5 30.7461 205.5 32.9V51.1C205.5 53.2539 207.269 55 209.45 55H235.55C237.731 55 239.5 53.2539 239.5 51.1V32.9C239.5 30.7461 237.731 29 235.55 29H209.45ZM212.286 34.3895C211.559 34.3895 210.969 34.9715 210.969 35.6895C210.969 36.4074 211.559 36.9895 212.286 36.9895H229.404C230.131 36.9895 230.721 36.4074 230.721 35.6895C230.721 34.9715 230.131 34.3895 229.404 34.3895H212.286ZM210.969 40.8895C210.969 40.1715 211.559 39.5895 212.286 39.5895H224.795C225.522 39.5895 226.112 40.1715 226.112 40.8895C226.112 41.6074 225.522 42.1895 224.795 42.1895H212.286C211.559 42.1895 210.969 41.6074 210.969 40.8895ZM212.286 44.7895C211.559 44.7895 210.969 45.3715 210.969 46.0895C210.969 46.8074 211.559 47.3895 212.286 47.3895H224.795C225.522 47.3895 226.112 46.8074 226.112 46.0895C226.112 45.3715 225.522 44.7895 224.795 44.7895H212.286Z" fill="#FDDEDA"/>
<path fill-rule="evenodd" clip-rule="evenodd" d="M24.9608 100C21.9449 100 19.5 102.418 19.5 105.4V130.6C19.5 133.582 21.9449 136 24.9608 136H61.0392C64.0551 136 66.5 133.582 66.5 130.6V105.4C66.5 102.418 64.0551 100 61.0392 100H24.9608ZM28.8804 107.462C27.8751 107.462 27.0601 108.268 27.0601 109.262C27.0601 110.256 27.8751 111.062 28.8804 111.062H52.5437C53.549 111.062 54.364 110.256 54.364 109.262C54.364 108.268 53.549 107.462 52.5437 107.462H28.8804ZM27.0601 116.462C27.0601 115.468 27.8751 114.662 28.8804 114.662H46.1728C47.1781 114.662 47.9931 115.468 47.9931 116.462C47.9931 117.456 47.1781 118.262 46.1728 118.262H28.8804C27.8751 118.262 27.0601 117.456 27.0601 116.462ZM28.8804 121.862C27.8751 121.862 27.0601 122.668 27.0601 123.662C27.0601 124.656 27.8751 125.462 28.8804 125.462H46.1728C47.1781 125.462 47.9931 124.656 47.9931 123.662C47.9931 122.668 47.1781 121.862 46.1728 121.862H28.8804Z" fill="#FDDEDA"/>
<g style="mix-blend-mode:overlay" opacity="0.2">
<rect x="-15.5" y="-54" width="375" height="256" fill="url(#pattern0)" style="mix-blend-mode:soft-light"/>
</g>
</g>
<g clip-path="url(#clip0)">
<path d="M225.017 122.004C228.783 132.383 233.864 139.925 235.4 145.201C236.618 149.394 240.533 146.198 246.06 147.134C252.265 148.184 256.866 146.928 256.649 145.542C256.432 144.156 244.378 142.919 242.036 138.887C239.694 134.856 235.01 118.972 235.01 118.972L225.017 122.004Z" fill="#F5CFBF"/>
<path d="M240.533 144.088C241.548 144.142 242.561 143.954 243.49 143.541C244.418 143.128 245.236 142.502 245.876 141.713C250.26 143.635 256.491 144.545 256.649 145.542C256.866 146.928 252.265 148.184 246.06 147.134C240.533 146.198 236.618 149.383 235.4 145.201C235.246 144.68 235.051 144.133 234.838 143.567C236.985 143.208 238.945 143.968 240.533 144.088Z" fill="#37BC9B"/>
<g style="mix-blend-mode:multiply" opacity="0.3">
<path d="M225.017 122.004C228.783 132.383 233.864 139.925 235.4 145.201C236.618 149.394 240.533 146.198 246.06 147.134C252.265 148.184 256.866 146.928 256.649 145.542C256.432 144.156 244.378 142.919 242.036 138.887C239.694 134.856 235.01 118.972 235.01 118.972L225.017 122.004Z" fill="#3D6ACC"/>
</g>
<path d="M255.431 137.344C265.36 142.17 274.259 144.043 279.037 146.778C282.832 148.937 282.364 143.875 288.127 141.345C293.89 138.816 294.871 132.727 293.747 131.881C292.623 131.034 284.519 139.33 280.022 138.063C275.526 136.797 260.489 128.227 260.489 128.227L255.431 137.344Z" fill="#F5CFBF"/>
<path d="M173.826 78.4377C173.826 78.4377 171.252 77.4373 167.543 78.063C163.833 78.6888 162.503 81.2217 162.503 81.2217C162.503 81.2217 168.153 101.324 175.891 102.954C183.628 104.584 199.249 98.6301 205.473 97.0975C211.697 95.565 214.964 94.7782 214.964 94.7782C214.964 94.7782 216.032 95.9435 216.92 95.8685C217.808 95.7936 217.718 95.4451 217.718 95.4451C217.995 95.7291 218.354 95.918 218.745 95.9847C218.912 96.009 219.082 95.9905 219.24 95.9308C219.398 95.8712 219.538 95.7724 219.648 95.6437C219.648 95.6437 220.596 96.3519 221.206 96.2095C221.287 96.1939 221.363 96.161 221.429 96.1132C221.495 96.0654 221.551 96.0037 221.591 95.9325C221.631 95.8612 221.656 95.7821 221.662 95.7006C221.669 95.619 221.658 95.537 221.63 95.4601C221.63 95.4601 222.241 95.6887 222.713 94.5646C223.185 93.4405 221.405 88.7831 218.333 87.273C215.26 85.763 202.445 88.0861 195.701 89.3226C188.956 90.5591 179.338 93.4443 179.338 93.4443C179.338 93.4443 175.228 84.4703 173.826 78.4377Z" fill="#F5CFBF"/>
<g style="mix-blend-mode:multiply" opacity="0.16">
<path d="M173.826 78.4377C173.826 78.4377 171.252 77.4373 167.543 78.063C163.833 78.6888 162.503 81.2217 162.503 81.2217C162.503 81.2217 168.153 101.324 175.891 102.954C183.628 104.584 199.249 98.6301 205.473 97.0975C211.697 95.565 214.964 94.7782 214.964 94.7782C214.964 94.7782 216.032 95.9435 216.92 95.8685C217.808 95.7936 217.718 95.4451 217.718 95.4451C217.995 95.7291 218.354 95.918 218.745 95.9847C218.912 96.009 219.082 95.9905 219.24 95.9308C219.398 95.8712 219.538 95.7724 219.648 95.6437C219.648 95.6437 220.596 96.3519 221.206 96.2095C221.287 96.1939 221.363 96.161 221.429 96.1132C221.495 96.0654 221.551 96.0037 221.591 95.9325C221.631 95.8612 221.656 95.7821 221.662 95.7006C221.669 95.619 221.658 95.537 221.63 95.4601C221.63 95.4601 222.241 95.6887 222.713 94.5646C223.185 93.4405 221.405 88.7831 218.333 87.273C215.26 85.763 202.445 88.0861 195.701 89.3226C188.956 90.5591 179.338 93.4443 179.338 93.4443C179.338 93.4443 175.228 84.4703 173.826 78.4377Z" fill="#3D6ACC"/>
</g>
<path d="M174.767 118.935C175.19 118.23 202.449 91.5296 216.504 91.8106C230.559 92.0916 238.004 122.727 238.004 122.727L226.059 126.803L214.113 109.942L188.259 142.541L174.767 118.935Z" fill="#E21C23"/>
<path d="M160.985 68.7707C161.038 71.6783 163.234 74.6684 167.378 75.4702C171.814 76.332 175.055 78.4978 176.554 76.407C175.928 75.8337 174.834 71.0376 175.01 69.8985C175.452 67.0471 181.661 52.8499 181.661 52.8499L171.582 48.6795C171.582 48.6795 165.65 62.7905 164.463 64.9375C163.491 66.3736 162.32 67.6643 160.985 68.7707Z" fill="#F6D6C9"/>
<path style="mix-blend-mode:multiply" d="M174.943 70.6067C174.948 70.3693 174.97 70.1326 175.01 69.8985C175.452 67.0508 181.661 52.8499 181.661 52.8499L171.582 48.6795C171.582 48.6795 165.65 62.7905 164.463 64.9375C164.273 65.2791 164.004 65.5707 163.679 65.7881L174.943 70.6067Z" fill="url(#paint0_linear)"/>
<path d="M155.091 115.139C155.091 115.139 156.627 138.082 166.055 145.074C178.562 154.347 199.639 138.606 199.639 138.606L190.507 124.132C190.507 124.132 185.307 124.413 174.066 112.61C161.888 114.075 155.091 115.139 155.091 115.139Z" fill="#E21C23"/>
<g style="mix-blend-mode:multiply" opacity="0.3">
<path d="M172.968 54.2287C172.837 56.4768 171.139 63.9708 176.108 66.2826C177.157 63.7759 178.311 61.1156 179.267 58.9461L172.968 54.2287Z" fill="#3D6ACC"/>
</g>
<path d="M176.828 75.369C181.039 85.3771 183.149 87.9025 182.662 91.0612C182.413 92.8118 181.559 94.42 180.248 95.6063C178.244 97.4198 178.832 99.5668 178.165 102.186L178.982 111.347C174.981 114.146 170.43 116.062 165.632 116.968C158.044 118.373 153.548 116.825 153.548 116.825C153.548 116.825 151.157 87.8426 153.967 79.4457C157.298 69.5012 163.065 65.9941 163.065 65.9941C167.741 67.313 174.253 73.518 176.828 75.369Z" fill="white"/>
<g style="mix-blend-mode:multiply" opacity="0.3">
<path d="M170.63 79.648L170.555 79.4157C170.584 79.4917 170.609 79.5692 170.63 79.648Z" fill="#3D6ACC"/>
</g>
<g style="mix-blend-mode:multiply" opacity="0.3">
<path d="M158.557 80.9669C158.722 84.1031 158.887 87.8763 158.887 87.8763L170.832 88.2285C170.832 88.2285 171.121 81.3117 170.716 79.7941C171.042 80.8058 171.982 86.6061 172.799 89.1615C174.257 93.802 176.041 98.3335 178.139 102.722L178.701 107.428C178.843 107.525 200.017 114.637 200.058 114.738C200.808 116.488 198.301 122.464 198.301 122.464C198.301 122.464 176.966 121.295 170.757 119.444C157.557 115.491 158.557 80.9669 158.557 80.9669Z" fill="#3D6ACC"/>
</g>
<path d="M178.461 40.6497C178.18 38.1954 179.038 35.0293 175.49 32.4514C172.867 30.5479 169.888 31.5409 167.887 32.9684C165.886 34.396 165.759 30.3718 162.147 28.637C158.535 26.9021 155.563 29.0679 154.349 30.7952C153.135 32.5226 151.415 28.4346 147.86 29.1765C143.738 30.0346 144.42 34.0476 143.255 35.8049C141.497 38.4278 138.102 38.6751 140.122 43.932C142.142 49.189 146.93 47.9413 148.676 46.7947C150.422 45.6481 152.341 46.5437 153.308 48.4396C154.274 50.3356 158.842 51.0625 160.266 48.4096C161.69 45.7568 161.675 44.6027 163.421 43.9133C165.167 43.2239 165.999 45.0374 168.292 44.288C170.585 43.5386 169.176 39.9003 171.795 40.0727C173.845 40.2076 174.853 42.437 174.853 42.437L178.461 40.6497Z" fill="#333333"/>
<g style="mix-blend-mode:multiply" opacity="0.55">
<path d="M148.773 39.3233C150.115 41.7101 154.248 42.3658 155.046 39.1884C155.844 36.011 158.13 34.9544 160.352 35.7337C162.574 36.5131 165.339 39.5594 166.44 38.0868C167.542 36.6143 169.281 35.3103 172.244 35.3403C175.208 35.3703 176.546 38.2367 177.539 40.7097L177.558 41.0844L174.856 42.4108C174.856 42.4108 173.848 40.1626 171.799 40.0465C169.176 39.8741 170.581 43.5311 168.295 44.2618C166.009 44.9924 165.174 43.1752 163.424 43.8871C161.674 44.599 161.689 45.7606 160.269 48.3834C158.849 51.0063 154.274 50.3131 153.311 48.4134C152.348 46.5137 150.422 45.6219 148.68 46.7685C146.937 47.9151 142.145 49.1628 140.126 43.9058L140.107 43.8609C141.782 36.0747 147.511 37.1014 148.773 39.3233Z" fill="#3D6ACC"/>
</g>
<path d="M186.872 57.8145C183.983 62.738 180.81 67.6091 175.571 63.4012C173.005 61.3479 171.63 56.2108 174.253 51.1862C176.875 46.1615 178.865 42.5682 185.029 45.2547C190.623 47.7015 190.398 52.4002 187.198 56.8028C186.992 57.0839 187.052 57.5035 186.872 57.8145Z" fill="#F5CFBF"/>
<path d="M185.58 56.2558C185.537 56.3385 185.47 56.4066 185.388 56.4513C185.306 56.496 185.213 56.5153 185.119 56.5069C185.026 56.4985 184.938 56.4627 184.865 56.404C184.793 56.3453 184.739 56.2664 184.711 56.1773C184.683 56.0881 184.683 55.9927 184.709 55.9031C184.736 55.8135 184.788 55.7338 184.86 55.674C184.932 55.6142 185.019 55.5771 185.112 55.5672C185.205 55.5574 185.299 55.5754 185.382 55.6188C185.492 55.6777 185.574 55.7775 185.611 55.8967C185.648 56.0158 185.637 56.1448 185.58 56.2558Z" fill="black"/>
<path d="M182.436 57.9532C182.275 58.2616 182.026 58.5153 181.72 58.6822C181.415 58.8492 181.067 58.9219 180.72 58.8912C180.374 58.8605 180.044 58.7277 179.772 58.5096C179.501 58.2916 179.3 57.998 179.196 57.666C179.091 57.334 179.088 56.9785 179.185 56.6443C179.282 56.3102 179.476 56.0124 179.743 55.7885C180.01 55.5646 180.336 55.4248 180.682 55.3866C181.028 55.3484 181.378 55.4135 181.687 55.5738C181.892 55.6806 182.075 55.8269 182.224 56.0043C182.373 56.1818 182.486 56.3869 182.555 56.6079C182.625 56.829 182.65 57.0616 182.63 57.2924C182.609 57.5233 182.544 57.7478 182.436 57.9532Z" fill="#F29D9D"/>
<path d="M187.222 56.7392L187.683 59.7367C187.695 59.8179 187.687 59.901 187.659 59.9781C187.63 60.0552 187.583 60.1238 187.521 60.1775C187.458 60.2311 187.383 60.268 187.303 60.2846C187.222 60.3012 187.139 60.2971 187.061 60.2725L185.494 59.7779L187.222 56.7392Z" fill="#F29D9D"/>
<g style="mix-blend-mode:multiply">
<path d="M184.37 53.0296C184.659 53.0896 184.947 53.142 185.225 53.2207C185.503 53.2912 185.775 53.3852 186.038 53.5017C186.301 53.6116 186.552 53.7484 186.787 53.9101C187.019 54.0695 187.228 54.2599 187.409 54.4759C187.422 54.4881 187.438 54.4948 187.456 54.4948C187.473 54.4948 187.49 54.4881 187.503 54.4759C187.515 54.4664 187.523 54.453 187.527 54.438C187.53 54.423 187.528 54.4073 187.521 54.3935C187.381 54.1162 187.182 53.8731 186.937 53.6816C186.696 53.4918 186.431 53.3331 186.15 53.2095C185.87 53.0927 185.579 53.0048 185.281 52.9472C185.131 52.9209 184.981 52.906 184.831 52.8872C184.681 52.8685 184.531 52.8872 184.382 52.8872C184.373 52.8872 184.364 52.889 184.356 52.8924C184.348 52.8957 184.34 52.9007 184.334 52.907C184.328 52.9132 184.323 52.9207 184.319 52.9289C184.316 52.937 184.314 52.9458 184.314 52.9547C184.312 52.972 184.317 52.9895 184.327 53.0035C184.338 53.0175 184.353 53.0268 184.37 53.0296Z" fill="#C3B9DD"/>
</g>
<path d="M182.361 59.7555C182.698 59.6993 182.908 59.9541 183.44 60.4599C183.806 60.7966 184.189 61.1142 184.587 61.4116C184.402 61.7051 184.185 61.9766 183.939 62.221C183.819 62.1198 183.384 61.7639 183.227 61.614C182.028 60.4824 182.091 59.8005 182.361 59.7555Z" fill="#F29D9D"/>
<g style="mix-blend-mode:multiply" opacity="0.3">
<path d="M174.254 51.1861C176.876 46.1652 178.866 42.5681 185.03 45.2547C187.926 46.5212 189.26 48.3946 189.429 50.5004C189.33 50.5127 189.23 50.5024 189.136 50.4704C188.713 50.3206 187.308 49.6049 185.869 49.114C183.063 48.1548 182.171 49.8634 180.095 51.2086C179.692 51.472 179.219 51.6085 178.737 51.6005C178.256 51.5924 177.788 51.4403 177.393 51.1636L173.796 53.8989L173.171 54.0076C173.418 53.0272 173.781 52.0799 174.254 51.1861Z" fill="#3D6ACC"/>
</g>
<path d="M189.162 49.5562C189.492 49.6499 190.901 49.0354 191.268 47.4317C191.583 46.0416 190.519 42.8379 186.749 42.6131C184.453 42.4745 183.857 40.6684 181.211 40.0577C174.898 38.6039 171.863 41.6801 168.528 47.1282C166.902 49.7848 169.547 54.3411 169.547 54.3411C170.368 54.8207 173.174 53.9214 174.238 53.7041L177.667 50.759C177.667 50.759 178.746 52.0704 180.11 51.0587C182.103 49.5862 183.149 47.4204 186.008 48.211C187.473 48.6082 188.728 49.4288 189.162 49.5562Z" fill="#333333"/>
<path d="M175.1 56.4206C174.623 56.1913 174.197 55.8705 173.845 55.4763C173.492 55.0822 173.221 54.6226 173.046 54.1236C172.872 53.6247 172.797 53.0962 172.827 52.5684C172.856 52.0406 172.989 51.5238 173.219 51.0475C173.448 50.5712 173.769 50.1447 174.163 49.7924C174.557 49.4401 175.017 49.1689 175.516 48.9942C176.015 48.8195 176.543 48.7448 177.071 48.7744C177.599 48.804 178.115 48.9372 178.592 49.1665L175.1 56.4206Z" fill="#F5CFBF"/>
<path d="M175.924 54.7045C175.673 54.5837 175.448 54.4147 175.263 54.207C175.077 53.9994 174.934 53.7572 174.842 53.4944C174.75 53.2315 174.711 52.9531 174.726 52.675C174.742 52.3969 174.812 52.1246 174.933 51.8737C175.054 51.6227 175.223 51.398 175.43 51.2124C175.638 51.0268 175.88 50.8839 176.143 50.7919C176.674 50.606 177.257 50.6387 177.764 50.8826L175.924 54.7045Z" fill="#F29D9D"/>
<path d="M224.101 87.8068L225.724 88.7435L210.359 115.355L208.737 114.419L224.101 87.8068Z" fill="#272A30"/>
<path d="M164.739 86.2652C168.486 86.5499 170.735 88.1386 170.735 88.1386C170.618 94.3286 174.894 105.573 174.894 105.573C174.894 105.573 181.526 108.811 188.315 109.762C195.105 110.714 207.166 113.948 211.149 113.76C211.168 113.76 211.861 110.609 212.906 111.403C213.888 114.262 213.068 118.969 208.665 119.486C207.035 119.414 198.878 119.111 194.801 118.972C188.398 118.777 177.161 116.556 170.071 113.086C162.982 109.616 159.1 88.0862 159.1 88.0862C159.1 88.0862 160.985 85.9804 164.739 86.2652Z" fill="#F5CFBF"/>
<g style="mix-blend-mode:multiply" opacity="0.3">
<path d="M164.885 87.0257C161.431 86.5536 159.437 88.236 159.164 88.4833C159.164 87.8988 159.216 88.0187 159.216 88.0187C159.216 88.0187 161.285 85.7705 165.017 86.2614C168.749 86.7522 170.806 88.3259 170.806 88.3259C170.783 88.6294 170.761 88.9442 170.746 89.2627C169.007 88.044 166.994 87.2755 164.885 87.0257Z" fill="#3D6ACC"/>
</g>
<path d="M205.727 113.547C206.334 112.516 209.051 111.1 210.385 110.995C210.385 110.995 209.849 112.846 209.006 113.359C208.478 113.695 208.03 114.143 207.694 114.671L205.727 113.547Z" fill="#F6D6C9"/>
<path d="M177.764 146.947C190.879 143.95 230.698 131.3 230.698 131.3C230.698 131.3 248.027 135.703 255.9 137.951L262.27 128.396C262.27 128.396 246.472 117.74 231.679 116.125C214.957 114.296 170.271 124.274 170.271 124.274L177.764 146.947Z" fill="#E21C23"/>
<path d="M283.536 142.192C285.785 140.266 286.909 137.902 286.68 136.047C290.015 134.028 293.087 131.367 293.747 131.862C294.871 132.705 293.885 138.794 288.126 141.327C282.367 143.86 282.832 148.918 279.036 146.779C278.279 146.355 277.498 145.973 276.698 145.636C278.272 143.706 281.386 144.024 283.536 142.192Z" fill="#37BC9B"/>
<path d="M287.471 140.997C292.773 138.666 294.024 133.331 293.312 131.839C293.382 131.812 293.457 131.799 293.532 131.803C293.607 131.807 293.68 131.827 293.747 131.862C294.871 132.705 293.885 138.794 288.126 141.327C282.367 143.86 282.832 148.918 279.036 146.779C279.009 146.76 278.98 146.744 278.95 146.73C282.142 148.052 282.015 143.406 287.471 140.997Z" fill="#171733"/>
<path d="M277.864 146.149C277.49 145.969 277.115 145.793 276.699 145.617L276.721 145.594C277.122 145.774 277.505 145.962 277.864 146.149Z" fill="#171733"/>
</g>
<defs>
<pattern id="pattern0" patternContentUnits="objectBoundingBox" width="0.586667" height="0.859375">
<use xlink:href="#image0" transform="scale(0.00266667 0.00390625)"/>
</pattern>
<linearGradient id="paint0_linear" x1="179.643" y1="52.4407" x2="171.487" y2="68.61" gradientUnits="userSpaceOnUse">
<stop stop-color="#F0C3A8"/>
<stop offset="1" stop-color="white"/>
</linearGradient>
<clipPath id="clip0">
<rect width="154.656" height="120" fill="white" transform="matrix(-1 0 0 1 294.155 28)"/>
</clipPath>
</defs>
</svg>
